<svg width="340" height="70" viewBox="0 0 340 70" fill="none" xmlns="http://www.w3.org/2000/svg">
<path d="M111.525 44.3696C111.404 46.279 110.987 47.9976 110.275 49.5251C109.581 51.0527 108.643 52.3546 107.463 53.4308C106.283 54.5071 104.877 55.3403 103.245 55.9305C101.613 56.5033 99.8079 56.7897 97.829 56.7897C96.2668 56.7897 94.8173 56.5901 93.4807 56.1908C92.1614 55.7742 90.9724 55.184 89.9135 54.4203C88.9414 53.7086 88.0735 52.8493 87.3097 51.8425C86.5633 50.8357 85.9297 49.7247 85.4089 48.5096C84.9055 47.2945 84.5149 45.9579 84.2372 44.4998C83.9768 43.0416 83.8466 41.4967 83.8466 39.865V34.7616C83.8466 33.234 83.9681 31.7846 84.2112 30.4132C84.4542 29.0245 84.8187 27.74 85.3048 26.5596C85.8602 25.1188 86.5893 23.8343 87.492 22.706C88.3946 21.5777 89.4188 20.6229 90.5644 19.8418C91.5886 19.1822 92.7082 18.6788 93.9233 18.3316C95.1558 17.967 96.4751 17.7848 97.8811 17.7848C99.9642 17.7848 101.813 18.0799 103.427 18.6701C105.059 19.2603 106.448 20.1022 107.593 21.1958C108.739 22.2894 109.642 23.626 110.301 25.2056C110.961 26.7853 111.377 28.5645 111.551 30.5434H104.26C104.191 29.4151 104.017 28.4256 103.74 27.5751C103.479 26.7245 103.097 26.0128 102.594 25.44C102.073 24.8845 101.422 24.4679 100.641 24.1901C99.8774 23.895 98.9574 23.7475 97.8811 23.7475C97.3083 23.7475 96.7702 23.8082 96.2668 23.9298C95.7807 24.0513 95.3294 24.2335 94.9128 24.4766C94.2011 24.8932 93.5935 25.492 93.0901 26.2732C92.6041 27.037 92.2135 27.9309 91.9184 28.9551C91.6927 29.7536 91.5278 30.6389 91.4237 31.611C91.3195 32.5657 91.2675 33.5985 91.2675 34.7095V39.865C91.2675 41.3752 91.3456 42.7292 91.5018 43.9269C91.6754 45.1073 91.9358 46.1402 92.2829 47.0255C92.526 47.633 92.8124 48.1711 93.1422 48.6398C93.4894 49.1085 93.8799 49.4991 94.3139 49.8115C94.7826 50.1587 95.3034 50.4191 95.8762 50.5927C96.4664 50.7489 97.1173 50.827 97.829 50.827C98.7838 50.827 99.643 50.7055 100.407 50.4625C101.171 50.2195 101.822 49.8376 102.36 49.3168C102.898 48.796 103.323 48.1277 103.636 47.3119C103.948 46.496 104.139 45.5153 104.208 44.3696H111.525ZM145.676 40.0733C145.676 41.705 145.529 43.2586 145.234 44.7341C144.938 46.1922 144.513 47.5462 143.958 48.796C143.367 50.0459 142.638 51.1915 141.77 52.2331C140.903 53.2746 139.913 54.1425 138.802 54.8369C137.795 55.4444 136.684 55.9131 135.469 56.2429C134.272 56.5901 132.978 56.7637 131.59 56.7637C130.114 56.7637 128.751 56.5727 127.502 56.1908C126.252 55.809 125.115 55.2708 124.091 54.5765C123.084 53.8474 122.181 52.9708 121.383 51.9466C120.584 50.9051 119.916 49.7334 119.378 48.4315C118.892 47.2338 118.519 45.9319 118.258 44.5258C118.015 43.1198 117.894 41.6356 117.894 40.0733V34.5533C117.894 32.8868 118.032 31.3072 118.31 29.8143C118.605 28.3215 119.031 26.9415 119.586 25.6743C120.124 24.4766 120.775 23.3916 121.539 22.4195C122.32 21.4475 123.214 20.6142 124.221 19.9199C125.21 19.2429 126.321 18.7222 127.554 18.3576C128.786 17.9931 130.123 17.8108 131.564 17.8108C133.022 17.8108 134.384 18.0018 135.652 18.3837C136.936 18.7482 138.09 19.2776 139.115 19.972C140.139 20.6316 141.033 21.4301 141.797 22.3675C142.578 23.3048 143.246 24.3377 143.801 25.466C144.409 26.7505 144.869 28.1566 145.181 29.6842C145.511 31.2117 145.676 32.8348 145.676 34.5533V40.0733ZM138.255 34.5012C138.255 33.5291 138.203 32.6091 138.099 31.7412C138.012 30.8559 137.865 30.04 137.656 29.2936C137.396 28.3562 137.049 27.523 136.615 26.7939C136.181 26.0475 135.669 25.44 135.079 24.9713C134.61 24.6241 134.081 24.355 133.49 24.1641C132.918 23.9731 132.275 23.8777 131.564 23.8777C130.887 23.8777 130.27 23.9645 129.715 24.1381C129.177 24.3116 128.691 24.5633 128.257 24.8932C127.667 25.3792 127.163 25.9868 126.747 26.7158C126.347 27.4449 126.035 28.2955 125.809 29.2675C125.636 30.014 125.505 30.8298 125.419 31.7151C125.349 32.6004 125.314 33.5291 125.314 34.5012V40.0733C125.314 40.9933 125.349 41.8786 125.419 42.7292C125.488 43.5798 125.61 44.3696 125.783 45.0987C125.974 46.0187 126.252 46.8606 126.616 47.6243C126.998 48.3708 127.441 48.9783 127.944 49.447C128.413 49.8636 128.942 50.1847 129.533 50.4104C130.14 50.6361 130.826 50.7489 131.59 50.7489C132.319 50.7489 132.987 50.6447 133.595 50.4364C134.202 50.2281 134.74 49.9244 135.209 49.5251C135.799 49.0391 136.294 48.4315 136.693 47.7025C137.11 46.956 137.439 46.1141 137.682 45.1768C137.873 44.4477 138.012 43.6492 138.099 42.7813C138.203 41.9133 138.255 41.0107 138.255 40.0733V34.5012ZM178.239 56.2429H170.948L160.403 31.7932V56.2429H153.034V18.3316H160.403L170.87 42.6771L170.896 18.3316H178.239V56.2429ZM196.116 56.2429L184.66 18.3316H192.731L199.163 43.0937L199.814 45.6455L200.517 43.0677L206.974 18.3316H215.046L203.563 56.2429H196.116ZM244.614 39.6307H229.044V50.3323H247.244V56.2429H221.701V18.3316H247.166V24.2943H229.044V33.8502H244.614V39.6307ZM264.288 18.3316L267.882 32.5744L271.97 18.3316H281.057V56.2429H274.339V45.0205L274.652 27.2887L269.678 43.7447H266.059L261.607 27.9917L261.919 45.0205V56.2429H255.201V18.3316H264.288Z" fill="url(#paint0_linear_429_1198)"/>
<g clip-path="url(#clip0_429_1198)">
<path fill-rule="evenodd" clip-rule="evenodd" d="M0.5 34.9999V68.8301C0.5 69.342 0.914966 69.757 1.42685 69.757H35.257H69.0872C69.599 69.757 70.014 69.342 70.014 68.8301V34.9999V1.16977C70.014 0.657885 69.599 0.24292 69.0872 0.24292H35.257H1.42685C0.914965 0.24292 0.5 0.657886 0.5 1.16977V34.9999ZM23.4107 2.29231C23.2991 2.32151 23.1167 2.32151 23.0052 2.29231C22.8936 2.26323 22.9849 2.23936 23.2079 2.23936C23.4309 2.23936 23.5222 2.26323 23.4107 2.29231ZM47.6261 2.29208C47.5154 2.32104 47.3068 2.32209 47.1627 2.2944C47.0186 2.26671 47.1092 2.24295 47.3641 2.24168C47.6189 2.24041 47.7369 2.26311 47.6261 2.29208ZM46.2634 2.59528C46.2634 2.61462 46.068 2.81007 45.829 3.02974L45.3945 3.42898L45.7937 2.99452C46.1654 2.59018 46.2634 2.50676 46.2634 2.59528ZM48.8775 2.93659L49.2178 3.31312L48.8412 2.97285C48.4903 2.65564 48.4114 2.56005 48.501 2.56005C48.5209 2.56005 48.6904 2.72944 48.8775 2.93659ZM21.9335 2.71588C21.9335 2.73789 21.8162 2.85514 21.6728 2.97656C21.6463 2.99905 21.6104 2.96316 21.6328 2.93659C21.8402 2.69167 21.9335 2.6232 21.9335 2.71588ZM26.394 4.52962C27.0288 5.16683 27.5221 5.68819 27.4902 5.68819C27.4584 5.68819 26.9129 5.16683 26.2781 4.52962C25.6433 3.89241 25.15 3.37105 25.1819 3.37105C25.2137 3.37105 25.7592 3.89241 26.394 4.52962ZM49.5074 3.87596C49.5074 4.02309 49.4539 3.9574 49.285 3.60277C49.155 3.32969 49.1573 3.32598 49.3272 3.538C49.4263 3.66174 49.5074 3.81374 49.5074 3.87596ZM49.5865 4.31969C49.5496 4.41202 49.5221 4.38457 49.5166 4.24959C49.5116 4.12748 49.5389 4.05913 49.5774 4.09759C49.6158 4.13605 49.62 4.23604 49.5865 4.31969ZM20.9726 4.90615C20.9449 5.04947 20.9223 4.93222 20.9223 4.64548C20.9223 4.35873 20.9449 4.24148 20.9726 4.3848C21.0002 4.52811 21.0002 4.76284 20.9726 4.90615ZM49.5252 5.30169C49.4609 5.4187 49.0801 5.82722 48.679 6.20954L47.9497 6.90468L48.7285 6.07596C49.1569 5.62018 49.5074 5.18143 49.5074 5.10091C49.5074 5.02027 49.5376 4.9847 49.5747 5.02178C49.6118 5.05874 49.5894 5.18479 49.5252 5.30169ZM23.7872 8.06325C25.2199 9.49698 26.3659 10.67 26.3341 10.67C26.3022 10.67 25.104 9.49698 23.6713 8.06325C22.2387 6.62952 21.0926 5.45647 21.1245 5.45647C21.1563 5.45647 22.3545 6.62952 23.7872 8.06325ZM47.8854 6.99783C47.8854 7.01718 47.69 7.21263 47.4509 7.43229L47.0165 7.83154L47.4157 7.39707C47.7874 6.99273 47.8854 6.90932 47.8854 6.99783ZM27.9563 9.19459L26.3951 10.728L27.8919 9.20004C29.2486 7.81508 29.3738 7.65242 29.23 7.46219C29.078 7.26094 29.0807 7.26083 29.2945 7.45674C29.5117 7.65601 29.4769 7.70108 27.9563 9.19459ZM35.6945 7.39441C35.4572 7.41932 35.0401 7.41967 34.7676 7.3951C34.4951 7.37066 34.6893 7.35027 35.1991 7.34992C35.7089 7.34946 35.9318 7.3695 35.6945 7.39441ZM36.6159 7.49602C36.5774 7.53448 36.4775 7.53865 36.3939 7.50517C36.3015 7.46821 36.3289 7.44075 36.4639 7.43519C36.586 7.43021 36.6544 7.45755 36.6159 7.49602ZM37.4583 7.77361C37.5539 7.83536 37.58 7.88587 37.5162 7.88587C37.4525 7.88587 37.3222 7.83536 37.2266 7.77361C37.131 7.71186 37.1049 7.66134 37.1687 7.66134C37.2324 7.66134 37.3627 7.71186 37.4583 7.77361ZM42.7877 9.33767C43.5184 10.0705 44.0902 10.67 44.0583 10.67C44.0265 10.67 43.4026 10.0705 42.6719 9.33767C41.9411 8.60488 41.3694 8.00532 41.4013 8.00532C41.4331 8.00532 42.057 8.60488 42.7877 9.33767ZM17.2145 8.42889C17.1361 8.46064 16.9797 8.46261 16.867 8.43318C16.7542 8.40375 16.8184 8.3778 17.0096 8.37548C17.2008 8.37317 17.293 8.39715 17.2145 8.42889ZM38.7476 8.55564C38.8916 8.73939 38.8875 8.74345 38.7038 8.59943C38.5923 8.51196 38.501 8.42067 38.501 8.39669C38.501 8.30134 38.5961 8.36262 38.7476 8.55564ZM46.4951 8.39669C46.4951 8.42067 46.4038 8.51196 46.2924 8.59943C46.1086 8.74345 46.1046 8.73939 46.2486 8.55564C46.4 8.36262 46.4951 8.30134 46.4951 8.39669ZM53.7094 8.42889C53.631 8.46064 53.4746 8.46261 53.3618 8.43318C53.2491 8.40375 53.3133 8.3778 53.5045 8.37548C53.6956 8.37317 53.7878 8.39715 53.7094 8.42889ZM16.2565 8.63014C16.2565 8.65516 16.1756 8.70672 16.0767 8.74472C15.9736 8.78423 15.9271 8.76476 15.9677 8.69919C16.0357 8.58901 16.2565 8.53629 16.2565 8.63014ZM21.7598 15.419L20.8545 16.3243C20.4911 16.6877 19.9014 16.6861 19.54 16.3207L17.6756 14.4353L15.1559 11.8872L17.6754 14.3764L19.5404 16.2189C19.9026 16.5769 20.4859 16.5755 20.8464 16.2157L21.7018 15.3622L22.5555 14.5103C22.9168 14.15 22.9187 13.5655 22.5601 13.2027L20.6305 11.2506L18.0523 8.64253L20.6883 11.2486L22.6613 13.1992C23.0268 13.5605 23.0286 14.1502 22.6651 14.5137L21.7598 15.419ZM31.5496 8.73001C31.5496 8.74623 29.5294 10.7665 27.0602 13.2195L22.5707 17.6794L27.0306 13.1899C31.1759 9.01733 31.5496 8.64833 31.5496 8.73001ZM55.0685 9.10596C55.2847 9.32899 55.4354 9.51146 55.4036 9.51146C55.3717 9.51146 55.1689 9.32899 54.9527 9.10596C54.7365 8.88294 54.5858 8.70046 54.6176 8.70046C54.6495 8.70046 54.8523 8.88294 55.0685 9.10596ZM15.7931 8.85409C15.7931 8.87483 15.6497 9.01814 15.4745 9.17269L15.1559 9.45353L15.4367 9.13492C15.6992 8.83717 15.7931 8.76314 15.7931 8.85409ZM50.3763 20.0544C56.5571 26.2354 61.5879 31.2925 61.556 31.2925C61.5242 31.2925 56.4412 26.2354 50.2605 20.0544C44.0797 13.8735 39.0489 8.81632 39.0808 8.81632C39.1126 8.81632 44.1956 13.8735 50.3763 20.0544ZM46.0317 8.85154C46.0317 8.87089 45.8363 9.06634 45.5972 9.286L45.1628 9.68524L45.562 9.25078C45.9337 8.84644 46.0317 8.76303 46.0317 8.85154ZM52.288 8.84633C52.288 8.86278 51.154 9.99678 49.7681 11.3662L47.2482 13.8561L49.7381 11.3362C52.0517 8.99474 52.288 8.76407 52.288 8.84633ZM15.1379 9.69023C15.1002 9.78859 15.0444 9.8442 15.0141 9.81385C14.9837 9.78349 14.9932 9.70297 15.0353 9.63508C15.1495 9.45017 15.2162 9.48609 15.1379 9.69023ZM45.1048 9.77839C45.1048 9.79774 44.9094 9.99319 44.6704 10.2129L44.2359 10.6121L44.6352 10.1776C45.0068 9.7733 45.1048 9.68988 45.1048 9.77839ZM14.8302 10.8728C14.8011 10.9843 14.7773 10.8931 14.7773 10.67C14.7773 10.447 14.8011 10.3557 14.8302 10.4673C14.8594 10.5788 14.8594 10.7612 14.8302 10.8728ZM55.7269 11.1552C55.69 11.2476 55.6625 11.2201 55.657 11.0851C55.652 10.963 55.6793 10.8947 55.7178 10.9331C55.7563 10.9716 55.7604 11.0716 55.7269 11.1552ZM52.9252 14.3774C51.5244 15.7793 50.3495 16.9263 50.3141 16.9263C50.2788 16.9263 51.3992 15.7797 52.804 14.3781C54.2088 12.9767 55.3838 11.8298 55.4151 11.8293C55.4464 11.8289 54.326 12.9756 52.9252 14.3774ZM47.5958 14.1457C47.711 14.2732 47.7794 14.3774 47.7475 14.3774C47.7157 14.3774 47.5952 14.2732 47.4799 14.1457C47.3646 14.0183 47.2963 13.914 47.3281 13.914C47.36 13.914 47.4805 14.0183 47.5958 14.1457ZM11.0719 14.57C10.9923 14.6022 10.862 14.6022 10.7823 14.57C10.7027 14.5379 10.7678 14.5116 10.9271 14.5116C11.0864 14.5116 11.1516 14.5379 11.0719 14.57ZM59.8498 14.5693C59.7714 14.601 59.615 14.603 59.5023 14.5736C59.3895 14.5442 59.4537 14.5182 59.6449 14.5159C59.836 14.5136 59.9283 14.5376 59.8498 14.5693ZM48.2909 14.8409C48.4062 14.9683 48.4745 15.0726 48.4427 15.0726C48.4108 15.0726 48.2903 14.9683 48.175 14.8409C48.0598 14.7134 47.9914 14.6092 48.0233 14.6092C48.0551 14.6092 48.1756 14.7134 48.2909 14.8409ZM10.1161 14.7705C10.1161 14.7956 10.0352 14.8471 9.9363 14.8851C9.83319 14.9246 9.78673 14.9052 9.82728 14.8396C9.89529 14.7294 10.1161 14.6767 10.1161 14.7705ZM12.2595 15.0726C12.3747 15.2 12.4431 15.3043 12.4112 15.3043C12.3794 15.3043 12.2589 15.2 12.1436 15.0726C12.0283 14.9451 11.96 14.8409 11.9918 14.8409C12.0237 14.8409 12.1442 14.9451 12.2595 15.0726ZM61.2089 15.2464C61.4251 15.4694 61.5759 15.6519 61.544 15.6519C61.5121 15.6519 61.3093 15.4694 61.0931 15.2464C60.8769 15.0233 60.7262 14.8409 60.758 14.8409C60.7899 14.8409 60.9927 15.0233 61.2089 15.2464ZM9.65268 14.9945C9.65268 15.0152 9.50937 15.1585 9.33408 15.3131L9.01547 15.5939L9.29631 15.2753C9.55884 14.9776 9.65268 14.9035 9.65268 14.9945ZM58.4284 14.9867C58.4284 15.0032 57.2944 16.1372 55.9085 17.5066L53.3886 19.9965L55.8785 17.4766C58.1921 15.1351 58.4284 14.9045 58.4284 14.9867ZM49.1747 15.7388C49.3187 15.9225 49.3146 15.9266 49.1309 15.7826C48.9379 15.6311 48.8766 15.536 48.9719 15.536C48.9959 15.536 49.0872 15.6272 49.1747 15.7388ZM13.8815 16.5787C14.1303 16.8336 14.3079 17.0421 14.2761 17.0421C14.2442 17.0421 14.0145 16.8336 13.7656 16.5787C13.5167 16.3238 13.3391 16.1153 13.371 16.1153C13.4029 16.1153 13.6326 16.3238 13.8815 16.5787ZM8.6891 16.7164C8.65214 16.8087 8.62469 16.7812 8.61913 16.6463C8.61414 16.5242 8.64148 16.4558 8.67995 16.4943C8.71841 16.5327 8.72258 16.6327 8.6891 16.7164ZM15.6748 21.4166L17.2413 19.8806L15.6785 21.474L14.7708 22.3995C14.41 22.7673 13.8184 22.7703 13.4539 22.4061L11.4208 20.3743C9.9385 18.8931 8.72583 17.6521 8.72583 17.6167C8.72583 17.5812 9.93688 18.7673 11.4171 20.2524L13.4593 22.3015C13.8185 22.6619 14.4013 22.6653 14.7647 22.309L15.6748 21.4166ZM61.7882 17.6614C61.7882 17.6834 61.6709 17.8007 61.5275 17.9221C61.501 17.9446 61.4651 17.9086 61.4876 17.8821C61.695 17.6372 61.7882 17.5687 61.7882 17.6614ZM22.5128 17.7725C22.5128 17.7919 22.3173 17.9873 22.0783 18.207L21.6439 18.6062L22.0431 18.1718C22.4148 17.7674 22.5128 17.684 22.5128 17.7725ZM20.7749 19.5331C20.3003 20.011 19.8857 20.402 19.8539 20.402C19.822 20.402 20.1844 20.011 20.6591 19.5331C21.1337 19.0552 21.5483 18.6641 21.5801 18.6641C21.612 18.6641 21.2496 19.0552 20.7749 19.5331ZM4.87116 20.7037C4.83269 20.7421 4.73271 20.7463 4.64918 20.7128C4.55672 20.6759 4.58418 20.6484 4.71915 20.6429C4.84127 20.6379 4.90962 20.6652 4.87116 20.7037ZM65.9277 20.7037C65.8892 20.7421 65.7892 20.7463 65.7057 20.7128C65.6132 20.6759 65.6407 20.6484 65.7757 20.6429C65.8978 20.6379 65.9661 20.6652 65.9277 20.7037ZM5.66246 20.9297C5.87448 21.0997 5.87077 21.102 5.5977 20.972C5.24306 20.8031 5.17737 20.7496 5.32451 20.7496C5.38672 20.7496 5.53873 20.8307 5.66246 20.9297ZM3.9757 20.911C3.9757 20.936 3.89483 20.9875 3.79589 21.0255C3.69278 21.065 3.64632 21.0456 3.68687 20.98C3.75488 20.8698 3.9757 20.8171 3.9757 20.911ZM67.3493 21.3868C67.5655 21.6098 67.7163 21.7923 67.6844 21.7923C67.6525 21.7923 67.4497 21.6098 67.2335 21.3868C67.0173 21.1638 66.8666 20.9813 66.8984 20.9813C66.9303 20.9813 67.1332 21.1638 67.3493 21.3868ZM3.51228 21.1349C3.51228 21.1556 3.36884 21.299 3.19367 21.4535L2.87506 21.7343L3.1559 21.4157C3.41843 21.118 3.51228 21.044 3.51228 21.1349ZM8.49412 23.5881C9.86296 24.9581 10.957 26.079 10.9251 26.079C10.8933 26.079 9.74711 24.9581 8.37826 23.5881C7.00941 22.218 5.91538 21.0971 5.94724 21.0971C5.9791 21.0971 7.12527 22.218 8.49412 23.5881ZM64.4529 21.243C64.4529 21.2596 63.3972 22.3154 62.1068 23.5891L59.7607 25.9052L62.0768 23.5591C64.2287 21.3792 64.4529 21.1607 64.4529 21.243ZM68.0078 22.6251C67.9708 22.7174 67.9433 22.6899 67.9378 22.555C67.9328 22.4328 67.9601 22.3645 67.9986 22.403C68.0371 22.4414 68.0412 22.5414 68.0078 22.6251ZM2.55136 23.2115C2.52367 23.3549 2.50108 23.2376 2.50108 22.9508C2.50108 22.6641 2.52367 22.5467 2.55136 22.6902C2.57893 22.8336 2.57893 23.0681 2.55136 23.2115ZM16.9517 23.3336C16.9517 23.353 16.7562 23.5484 16.5172 23.7681L16.0827 24.1673L16.482 23.7329C16.8536 23.3285 16.9517 23.2451 16.9517 23.3336ZM67.8271 23.9086C67.7127 24.0222 67.6995 24.0088 67.7623 23.8438C67.8058 23.7295 67.8706 23.6652 67.9063 23.7009C67.9419 23.7365 67.9064 23.83 67.8271 23.9086ZM67.6969 24.1403C67.6969 24.1574 67.1104 24.7438 66.3935 25.4437L65.0901 26.7162L66.3626 25.4128C67.5444 24.2022 67.6969 24.0568 67.6969 24.1403ZM9.44959 27.6422L10.985 26.1381L9.44982 27.7011L8.57359 28.5932C8.2112 28.9622 7.61698 28.9631 7.25332 28.5954L5.39483 26.7161L2.87506 24.168L5.3946 26.6572L7.26547 28.5056C7.62541 28.8613 8.20406 28.8624 8.56551 28.5084L9.44959 27.6422ZM16.0248 24.2605C16.0248 24.2798 15.8294 24.4753 15.5903 24.695L15.1559 25.0942L15.5551 24.6597C15.9268 24.2554 16.0248 24.172 16.0248 24.2605ZM15.0979 25.1873C15.0979 25.2067 14.9025 25.4021 14.6635 25.6218L14.229 26.021L14.6283 25.5866C14.9999 25.1822 15.0979 25.0988 15.0979 25.1873ZM14.1711 26.1089C14.1711 26.1253 12.9589 27.3375 11.4774 28.8025L8.78376 31.4663L11.4475 28.7726C13.9227 26.2697 14.1711 26.0267 14.1711 26.1089ZM60.1083 26.66L60.5717 27.1796L60.0793 26.7216C59.8086 26.4698 59.5869 26.2134 59.5869 26.152C59.5869 26.0906 59.6 26.0629 59.6159 26.0904C59.6318 26.1179 59.8534 26.3743 60.1083 26.66ZM63.8736 27.9906C63.2069 28.6597 62.6295 29.2071 62.5906 29.2071C62.5089 29.2071 64.9462 26.7776 65.0301 26.7755C65.0608 26.7747 64.5404 27.3215 63.8736 27.9906ZM61.4986 28.0485C61.6139 28.176 61.6822 28.2803 61.6503 28.2803C61.6185 28.2803 61.498 28.176 61.3827 28.0485C61.2674 27.9211 61.1991 27.8168 61.2309 27.8168C61.2628 27.8168 61.3833 27.9211 61.4986 28.0485ZM61.803 31.6111C61.9471 31.7949 61.943 31.7989 61.7593 31.6549C61.5662 31.5035 61.5049 31.4084 61.6003 31.4084C61.6243 31.4084 61.7156 31.4997 61.803 31.6111ZM8.84169 31.568C8.84169 31.592 8.75051 31.6833 8.63894 31.7708C8.45519 31.9148 8.45113 31.9107 8.59514 31.727C8.74657 31.534 8.84169 31.4727 8.84169 31.568ZM8.30237 32.3981C8.2646 32.4965 8.20888 32.5521 8.17852 32.5218C8.14817 32.4914 8.15767 32.4109 8.19972 32.343C8.31396 32.1581 8.38069 32.194 8.30237 32.3981ZM7.65207 35.4923C7.62774 35.7631 7.6077 35.5416 7.6077 34.9999C7.6077 34.4583 7.62774 34.2368 7.65207 34.5076C7.67651 34.7783 7.67651 35.2216 7.65207 35.4923ZM62.9157 35.4923C62.8914 35.7631 62.8714 35.5416 62.8714 34.9999C62.8714 34.4583 62.8914 34.2368 62.9157 34.5076C62.9402 34.7783 62.9402 35.2216 62.9157 35.4923ZM8.30666 37.6127C8.34617 37.7159 8.3267 37.7623 8.26113 37.7218C8.1981 37.6828 8.14654 37.602 8.14654 37.542C8.14654 37.3754 8.22961 37.4121 8.30666 37.6127ZM61.9041 38.2877C61.9041 38.3117 61.8128 38.403 61.7013 38.4905C61.5176 38.6345 61.5135 38.6304 61.6575 38.4467C61.809 38.2537 61.9041 38.1924 61.9041 38.2877ZM9.13133 38.8232C9.2466 38.9507 9.31496 39.0549 9.2831 39.0549C9.25124 39.0549 9.13075 38.9507 9.01547 38.8232C8.90019 38.6958 8.83184 38.5915 8.8637 38.5915C8.89556 38.5915 9.01605 38.6958 9.13133 38.8232ZM61.4406 38.8524C61.4406 38.8684 56.3705 43.9386 50.1736 50.1195L38.9065 61.3574L50.1444 50.0903C56.3252 43.8933 61.3955 38.8232 61.4114 38.8232C61.4276 38.8232 61.4406 38.8363 61.4406 38.8524ZM8.02107 40.8217C7.99454 40.8376 7.81635 40.981 7.62519 41.1404L7.6039 41.1581C7.57289 41.1839 7.53177 41.1416 7.55846 41.1114C7.71301 40.9362 7.89108 40.7928 7.95434 40.7928C8.0176 40.7928 8.0476 40.8059 8.02107 40.8217ZM65.207 43.3706L67.7548 45.9484L65.1774 43.4008L63.2487 41.4946C62.8887 41.1388 62.3099 41.1376 61.9484 41.4919L61.0645 42.3581L59.529 43.863L61.0335 42.3279C61.861 41.4835 62.5652 40.7928 62.5985 40.7928C62.6319 40.7928 63.8056 41.9527 65.207 43.3706ZM7.21969 41.5257C7.21969 41.5464 7.07638 41.6897 6.90108 41.8443L6.58248 42.1251L6.86332 41.8065C7.12585 41.5088 7.21969 41.4347 7.21969 41.5257ZM10.9047 43.866C10.8691 43.9017 10.8043 43.8374 10.7607 43.7231C10.6979 43.558 10.7112 43.5447 10.8256 43.6583C10.9049 43.7369 10.9404 43.8304 10.9047 43.866ZM62.1937 46.4698C63.5307 47.8079 64.5986 48.9028 64.5667 48.9028C64.5348 48.9028 63.4148 47.8079 62.0779 46.4698C60.7409 45.1316 59.673 44.0368 59.7049 44.0368C59.7367 44.0368 60.8567 45.1316 62.1937 46.4698ZM8.49412 46.4118C7.25283 47.6544 6.21104 48.671 6.17918 48.671C6.14732 48.671 7.13697 47.6544 8.37826 46.4118C9.61955 45.1693 10.6613 44.1526 10.6932 44.1526C10.7251 44.1526 9.7354 45.1693 8.49412 46.4118ZM3.51228 45.2316C3.51228 45.2515 3.34289 45.421 3.13574 45.6081L2.75921 45.9484L3.09948 45.5719C3.41669 45.2209 3.51228 45.142 3.51228 45.2316ZM2.66397 46.3589C2.59075 46.5528 2.51371 46.66 2.49274 46.5971C2.45543 46.4852 2.66652 46.0063 2.75318 46.0063C2.77728 46.0063 2.73708 46.1649 2.66397 46.3589ZM68.0078 46.7233C67.9708 46.8156 67.9433 46.7881 67.9378 46.6532C67.9328 46.5311 67.9601 46.4627 67.9986 46.5012C68.0371 46.5396 68.0412 46.6396 68.0078 46.7233ZM57.0408 47.5994L57.6726 48.2655L57.0383 47.6574C56.6857 47.3193 56.1276 47.325 55.7817 47.67L54.9252 48.5247L54.0964 49.3516C53.7365 49.7107 53.733 50.2928 54.0887 50.6561L54.8658 51.45L56.285 52.8998L54.8077 51.4532L53.9989 50.6612C53.6307 50.3008 53.6274 49.7091 53.9914 49.3443L54.864 48.4699C55.7076 47.6247 56.4002 46.9332 56.4032 46.9332C56.4063 46.9332 56.6932 47.2329 57.0408 47.5994ZM2.54869 47.5343C2.51174 47.6266 2.48428 47.5991 2.47872 47.4642C2.47374 47.342 2.50108 47.2737 2.53954 47.3122C2.57801 47.3506 2.58218 47.4506 2.54869 47.5343ZM67.6969 48.2439C67.6969 48.2638 67.5275 48.4333 67.3204 48.6204L66.9438 48.9607L67.2841 48.5841C67.6013 48.2332 67.6969 48.1543 67.6969 48.2439ZM3.45435 48.7869C3.56962 48.9143 3.63798 49.0186 3.60612 49.0186C3.57426 49.0186 3.45377 48.9143 3.33849 48.7869C3.22321 48.6595 3.15486 48.5552 3.18672 48.5552C3.21858 48.5552 3.33907 48.6595 3.45435 48.7869ZM64.9773 49.1121C64.9417 49.1478 64.8482 49.1122 64.7696 49.033C64.656 48.9185 64.6693 48.9053 64.8344 48.9681C64.9487 49.0117 65.013 49.0764 64.9773 49.1121ZM66.828 49.0186C66.7886 49.0823 66.6943 49.1337 66.6184 49.1327C66.5354 49.1316 66.5498 49.086 66.6542 49.0186C66.8768 48.8747 66.9168 48.8747 66.828 49.0186ZM17.0675 50.0913C17.0675 50.1078 15.9336 51.2418 14.5476 52.6112L12.0277 55.1011L14.5176 52.5812C16.8313 50.2397 17.0675 50.0091 17.0675 50.0913ZM10.3478 50.6844C10.3478 50.7084 10.2566 50.7997 10.1451 50.8871C9.96133 51.0312 9.95727 51.0271 10.1013 50.8434C10.2527 50.6503 10.3478 50.589 10.3478 50.6844ZM61.2089 51.7412C61.555 52.0917 61.8122 52.3785 61.7803 52.3785C61.7485 52.3785 61.4391 52.0917 61.0931 51.7412C60.747 51.3908 60.4898 51.104 60.5217 51.104C60.5535 51.104 60.8629 51.3908 61.2089 51.7412ZM9.0734 52.0747C9.0734 52.0987 8.98222 52.19 8.87065 52.2774C8.6869 52.4214 8.68285 52.4174 8.82686 52.2336C8.97828 52.0406 9.0734 51.9793 9.0734 52.0747ZM20.1956 53.1036C20.1956 53.1201 19.0357 54.28 17.6178 55.6814L15.04 58.2292L17.5878 55.6514C19.9554 53.2562 20.1956 53.0213 20.1956 53.1036ZM52.9262 55.6514L55.474 58.2292L52.8966 55.6816L50.9737 53.7812C50.6114 53.4231 50.0281 53.4245 49.6675 53.7843L48.8123 54.6377L47.9585 55.4896C47.5973 55.8499 47.5953 56.4344 47.954 56.7972L49.8836 58.7493L52.4618 61.3574L49.8264 58.7519L47.8531 56.8011C47.4878 56.4399 47.4858 55.8507 47.8487 55.4872L48.7241 54.61C49.5673 53.7649 50.2845 53.0736 50.3178 53.0736C50.3511 53.0736 51.5248 54.2336 52.9262 55.6514ZM61.8673 53.5588C61.8304 53.6511 61.8029 53.6237 61.7974 53.4887C61.7924 53.3666 61.8197 53.2982 61.8582 53.3367C61.8967 53.3752 61.9008 53.4752 61.8673 53.5588ZM57.7912 54.348C58.2337 54.7941 58.5698 55.159 58.538 55.159C58.5061 55.159 58.1179 54.7941 57.6753 54.348C57.2327 53.902 56.8966 53.537 56.9285 53.537C56.9604 53.537 57.3486 53.902 57.7912 54.348ZM61.7882 53.8625C61.7882 53.914 61.7092 54.0573 61.6126 54.1811C61.4497 54.3896 61.4468 54.3828 61.5732 54.0873C61.7097 53.7686 61.7882 53.6864 61.7882 53.8625ZM21.369 54.2032C21.5131 54.3869 21.509 54.391 21.3253 54.247C21.2137 54.1595 21.1225 54.0682 21.1225 54.0442C21.1225 53.9489 21.2176 54.0102 21.369 54.2032ZM9.42097 54.7535C9.63716 54.9765 9.78789 55.159 9.75603 55.159C9.72417 55.159 9.5213 54.9765 9.30511 54.7535C9.08892 54.5305 8.93819 54.348 8.97005 54.348C9.00192 54.348 9.20478 54.5305 9.42097 54.7535ZM61.4406 54.5016C61.4406 54.5224 61.2973 54.6657 61.122 54.8203L60.8034 55.1011L61.0843 54.7825C61.3468 54.4847 61.4406 54.4107 61.4406 54.5016ZM11.9119 55.159C11.8725 55.2227 11.7782 55.2741 11.7023 55.2731C11.6194 55.272 11.6337 55.2264 11.7381 55.159C11.9607 55.0151 12.0008 55.0151 11.9119 55.159ZM60.5786 55.2207C60.4548 55.3142 60.2984 55.3889 60.231 55.3867C60.1634 55.3844 60.2386 55.308 60.3979 55.2169C60.7732 55.0024 60.8646 55.0042 60.5786 55.2207ZM11.0116 55.4607C10.9731 55.4992 10.8731 55.5033 10.7896 55.4699C10.6971 55.4329 10.7246 55.4054 10.8596 55.3999C10.9817 55.3949 11.05 55.4222 11.0116 55.4607ZM59.7318 55.4674C59.6522 55.4996 59.5218 55.4996 59.4421 55.4674C59.3625 55.4353 59.4276 55.409 59.5869 55.409C59.7462 55.409 59.8115 55.4353 59.7318 55.4674ZM20.7739 58.6999C19.4045 60.074 18.2058 61.2422 18.1102 61.2959C18.0146 61.3497 19.1095 60.2261 20.5432 58.7991C21.9769 57.3721 23.1756 56.2039 23.2069 56.2032C23.2382 56.2024 22.1433 57.326 20.7739 58.6999ZM15.0221 58.4659C14.9843 58.5643 14.9286 58.6199 14.8982 58.5895C14.8679 58.5592 14.8774 58.4787 14.9194 58.4108C15.0336 58.2259 15.1004 58.2618 15.0221 58.4659ZM14.8295 59.0041C14.7926 59.0964 14.7651 59.069 14.7595 58.934C14.7546 58.8119 14.7819 58.7435 14.8204 58.782C14.8588 58.8204 14.863 58.9204 14.8295 59.0041ZM55.7296 59.5905C55.7019 59.7339 55.6793 59.6166 55.6793 59.3299C55.6793 59.0431 55.7019 58.9258 55.7296 59.0692C55.7572 59.2126 55.7572 59.4471 55.7296 59.5905ZM46.7857 61.9077L49.4495 64.6013L46.7841 61.9658L44.7681 59.9724C44.4079 59.6163 43.8283 59.6152 43.4669 59.9703L42.5558 60.8652L40.993 62.4001L42.555 60.807C43.414 59.9309 44.118 59.214 44.1194 59.214C44.1208 59.214 45.3207 60.4261 46.7857 61.9077ZM14.8295 59.8151C14.7926 59.9074 14.7651 59.8799 14.7595 59.745C14.7546 59.6229 14.7819 59.5545 14.8204 59.593C14.8588 59.6314 14.863 59.7314 14.8295 59.8151ZM26.1043 59.5978C26.1043 59.6178 25.9348 59.7873 25.7278 59.9744L25.3513 60.3146L25.6915 59.9381C26.0088 59.5872 26.1043 59.5083 26.1043 59.5978ZM30.4563 60.1698L30.7965 60.5464L30.42 60.2061C30.0691 59.8889 29.9902 59.7933 30.0797 59.7933C30.0997 59.7933 30.2692 59.9627 30.4563 60.1698ZM27.5095 60.3436C27.6535 60.5274 27.6494 60.5314 27.4657 60.3874C27.3541 60.2999 27.2629 60.2086 27.2629 60.1847C27.2629 60.0893 27.358 60.1506 27.5095 60.3436ZM25.2933 60.4078C25.2933 60.4271 25.0979 60.6226 24.8589 60.8423L24.4244 61.2415L24.8237 60.807C25.1953 60.4027 25.2933 60.3193 25.2933 60.4078ZM15.5614 60.8939C15.7776 61.117 15.9283 61.2994 15.8964 61.2994C15.8646 61.2994 15.6617 61.117 15.4455 60.8939C15.2293 60.6709 15.0786 60.4884 15.1105 60.4884C15.1423 60.4884 15.3452 60.6709 15.5614 60.8939ZM55.3002 60.6421C55.3002 60.6628 55.1568 60.8061 54.9816 60.9607L54.663 61.2415L54.9439 60.9229C55.2064 60.6251 55.3002 60.5511 55.3002 60.6421ZM31.3831 61.0967L31.7234 61.4732L31.3469 61.1329C30.9959 60.8157 30.917 60.7201 31.0066 60.7201C31.0265 60.7201 31.196 60.8895 31.3831 61.0967ZM28.2046 61.0387C28.3486 61.2225 28.3445 61.2266 28.1608 61.0825C28.0492 60.9951 27.958 60.9038 27.958 60.8798C27.958 60.7844 28.0532 60.8457 28.2046 61.0387ZM54.4381 61.3611C54.3144 61.4546 54.158 61.5293 54.0906 61.5271C54.023 61.5248 54.0982 61.4484 54.2575 61.3574C54.6328 61.1428 54.7242 61.1446 54.4381 61.3611ZM24.3665 61.3432C24.3665 61.3672 24.2753 61.4585 24.1637 61.546C23.98 61.69 23.9759 61.6859 24.1199 61.5022C24.2714 61.3092 24.3665 61.2479 24.3665 61.3432ZM38.8486 61.3432C38.8486 61.3672 38.7573 61.4585 38.6458 61.546C38.4621 61.69 38.458 61.6859 38.602 61.5022C38.7535 61.3092 38.8486 61.2479 38.8486 61.3432ZM17.2145 61.6071C17.1361 61.6389 16.9797 61.6409 16.867 61.6114C16.7542 61.582 16.8184 61.556 17.0096 61.5537C17.2008 61.5514 17.293 61.5754 17.2145 61.6071ZM28.8997 61.7339C29.0437 61.9176 29.0397 61.9217 28.8559 61.7777C28.6629 61.6263 28.6016 61.5311 28.697 61.5311C28.721 61.5311 28.8123 61.6224 28.8997 61.7339ZM53.7094 61.6071C53.631 61.6389 53.4746 61.6409 53.3618 61.6114C53.2491 61.582 53.3133 61.556 53.5045 61.5537C53.6956 61.5514 53.7878 61.5754 53.7094 61.6071ZM28.5373 63.2111C28.0627 63.689 27.6481 64.08 27.6163 64.08C27.5844 64.08 27.9468 63.689 28.4215 63.2111C28.8961 62.7332 29.3107 62.3421 29.3425 62.3421C29.3744 62.3421 29.012 62.7332 28.5373 63.2111ZM36.6159 62.528C36.5774 62.5664 36.4775 62.5706 36.3939 62.5371C36.3015 62.5002 36.3289 62.4727 36.4639 62.4671C36.586 62.4622 36.6544 62.4895 36.6159 62.528ZM35.6945 62.6581C35.4572 62.683 35.0401 62.6833 34.7676 62.6588C34.4951 62.6343 34.6893 62.6139 35.1991 62.6136C35.7089 62.6131 35.9318 62.6332 35.6945 62.6581ZM22.3969 63.3015C22.3969 63.3195 22.0711 63.6454 21.6728 64.0257L20.9487 64.7172L21.6403 63.9931C22.2826 63.3204 22.3969 63.2159 22.3969 63.3015ZM27.4946 64.2396C27.4946 64.2636 27.4034 64.3549 27.2919 64.4424C27.1081 64.5864 27.1041 64.5823 27.2481 64.3986C27.3995 64.2056 27.4946 64.1443 27.4946 64.2396ZM49.5865 65.7238C49.5496 65.8161 49.5221 65.7886 49.5166 65.6537C49.5116 65.5316 49.5389 65.4632 49.5774 65.5017C49.6158 65.5401 49.62 65.6401 49.5865 65.7238ZM20.9699 65.8396C20.933 65.932 20.9055 65.9045 20.8999 65.7695C20.895 65.6474 20.9223 65.5791 20.9608 65.6175C20.9992 65.656 21.0034 65.756 20.9699 65.8396ZM24.9458 66.8026C24.6644 67.0894 24.4081 67.324 24.3762 67.324C24.3444 67.324 24.5485 67.0894 24.8299 66.8026C25.1113 66.5159 25.3676 66.2813 25.3995 66.2813C25.4313 66.2813 25.2272 66.5159 24.9458 66.8026ZM49.2901 66.5439C49.1756 66.6575 49.1624 66.6441 49.2252 66.479C49.2687 66.3648 49.3335 66.3005 49.3692 66.3362C49.4049 66.3717 49.3693 66.4652 49.2901 66.5439ZM21.7018 67.0343C21.918 67.2574 22.0687 67.4398 22.0368 67.4398C22.005 67.4398 21.8021 67.2574 21.5859 67.0343C21.3697 66.8113 21.219 66.6288 21.2509 66.6288C21.2827 66.6288 21.4856 66.8113 21.7018 67.0343ZM49.1598 66.7825C49.1598 66.8032 49.0164 66.9465 48.8412 67.1011L48.5226 67.3819L48.8035 67.0633C49.066 66.7655 49.1598 66.6915 49.1598 66.7825ZM46.0896 67.2081C46.2049 67.3356 46.2733 67.4398 46.2414 67.4398C46.2095 67.4398 46.0891 67.3356 45.9738 67.2081C45.8585 67.0807 45.7901 66.9764 45.822 66.9764C45.8539 66.9764 45.9743 67.0807 46.0896 67.2081ZM23.4121 67.7511C23.3013 67.7801 23.0928 67.7811 22.9486 67.7535C22.8045 67.7258 22.8951 67.702 23.15 67.7007C23.4049 67.6995 23.5228 67.7222 23.4121 67.7511ZM47.5089 67.7514C47.3974 67.7806 47.2148 67.7806 47.1034 67.7514C46.9919 67.7223 47.0831 67.6984 47.3061 67.6984C47.5291 67.6984 47.6203 67.7223 47.5089 67.7514Z" fill="#80358A"/>
<path fill-rule="evenodd" clip-rule="evenodd" d="M0.5 34.9999V68.8301C0.5 69.342 0.914966 69.757 1.42685 69.757H35.257H69.0872C69.5991 69.757 70.014 69.342 70.014 68.8301V34.9999V1.16977C70.014 0.657885 69.5991 0.24292 69.0872 0.24292H35.257H1.42685C0.914965 0.24292 0.5 0.657886 0.5 1.16977V34.9999ZM24.0003 2.4457C24.3486 2.60385 25.2681 3.44311 26.9962 5.1805L28.8382 7.03254C29.1982 7.39449 29.1977 7.9794 28.8372 8.34079L28.0013 9.1786C27.1829 9.99887 26.4599 10.67 26.3947 10.67C26.2368 10.67 21.1829 5.58519 21.0189 5.26137C20.5597 4.35444 21.4645 2.66873 22.5921 2.33031C23.1145 2.17356 23.4635 2.20206 24.0003 2.4457ZM48.1798 2.4303C49.0395 2.82073 49.6233 3.74805 49.6233 4.72298V4.88831C49.6233 5.1336 49.5261 5.36889 49.3528 5.54261L46.9328 7.97068C45.4531 9.45538 44.1864 10.67 44.118 10.67C43.967 10.67 41.1657 7.85645 41.1657 7.70491C41.1657 7.48686 46.2121 2.5662 46.611 2.39531C47.1526 2.16325 47.6147 2.17356 48.1798 2.4303ZM36.5934 7.48987C38.2387 7.91843 37.9104 7.6194 50.1221 19.8085C56.8682 26.5419 61.6354 31.389 61.9028 31.7865C62.8514 33.1968 63.1837 34.9278 62.7774 36.3428C62.2932 38.029 62.6175 37.6733 50.4485 49.8651C43.715 56.6112 38.8679 61.3783 38.4704 61.6457C37.0745 62.5847 35.3117 62.9241 33.9248 62.5209C32.1707 62.011 32.7785 62.5666 20.1879 49.9641C9.78916 39.5555 8.5013 38.2271 8.20772 37.6067C7.34679 35.7867 7.34679 34.213 8.20783 32.3932C8.5013 31.7728 9.78221 30.4516 20.13 20.0967C28.0719 12.1494 31.9059 8.39089 32.3027 8.16347C33.7196 7.35154 35.1814 7.12203 36.5934 7.48987ZM17.9776 8.63813C18.1461 8.72757 19.4181 9.93886 20.8042 11.3297L22.6707 13.2025C23.0318 13.5649 23.031 14.1515 22.6688 14.5129L21.7597 15.4202L20.8495 16.3284C20.4878 16.6894 19.9022 16.6895 19.5404 16.3286L17.757 14.55C16.4159 13.2125 15.2226 11.9618 15.105 11.7707C14.5702 10.9012 14.7203 9.88313 15.4978 9.1055C16.2281 8.37525 17.1539 8.20077 17.9776 8.63813ZM54.0579 8.4757C55.3556 8.83601 56.1262 10.4462 55.5399 11.5726C55.4169 11.8089 54.2013 13.1132 52.8386 14.4709L51.0093 16.2937C50.65 16.6517 50.0695 16.6544 49.7069 16.2997L48.8336 15.4453C47.9935 14.6235 47.3061 13.901 47.3061 13.84C47.3061 13.7789 48.4661 12.5762 49.8839 11.1675C52.7773 8.29253 52.9642 8.17204 54.0579 8.4757ZM11.874 14.7933C12.0487 14.8836 13.3147 16.0907 14.6872 17.4758L16.534 19.3394C16.8929 19.7015 16.8919 20.2856 16.5317 20.6465L15.649 21.531L14.7705 22.4113C14.4087 22.7738 13.8213 22.7742 13.459 22.412L11.408 20.361C8.7914 17.7444 8.69907 17.6364 8.64172 17.1279C8.59619 16.7238 8.64948 16.4552 8.87181 15.9695C9.44611 14.7152 10.7415 14.2076 11.874 14.7933ZM60.1983 14.6161C60.7679 14.7743 61.4227 15.3564 61.688 15.9405C61.912 16.4333 61.9702 17.3375 61.796 17.6129C61.7385 17.7037 60.5123 18.9575 59.071 20.3991L57.1083 22.3622C56.7454 22.7252 56.1568 22.7241 55.7952 22.3599L54.9776 21.5363C54.1674 20.7203 53.4908 20.012 53.4741 19.9623C53.4573 19.9127 54.6043 18.7188 56.023 17.3093C58.9179 14.4328 59.1046 14.3123 60.1983 14.6161ZM5.65563 20.895C5.96543 21.0485 10.9271 25.9807 10.9271 26.135C10.9271 26.2017 10.2492 26.9325 9.42062 27.7592L8.56905 28.6089C8.20716 28.9699 7.62123 28.9698 7.25949 28.6087L5.4209 26.7727C3.90793 25.262 2.83764 24.0981 2.69861 23.8121C2.40399 23.2063 2.40862 22.6865 2.71425 22.0552C3.26295 20.9217 4.62543 20.3843 5.65563 20.895ZM66.7701 20.9284C67.7942 21.4517 68.3267 22.8424 67.8708 23.8031C67.7753 24.0043 66.5613 25.304 65.173 26.6913L63.2941 28.5687C62.936 28.9265 62.3572 28.9308 61.9939 28.5786L61.1026 27.7145L59.848 26.4983C59.6806 26.3359 59.6577 26.0754 59.7944 25.8865C60.1632 25.3769 64.4754 21.1445 64.7938 20.9799C65.4824 20.6235 66.1397 20.6065 66.7701 20.9284ZM31.3685 21.1456C31.1036 21.3068 30.7997 21.6239 30.6734 21.8711C30.55 22.1125 30.3839 22.3798 30.3041 22.4649C30.2246 22.5501 30.1593 22.6733 30.1593 22.7385C30.1593 22.8037 30.0612 22.9956 29.9413 23.1647C29.8214 23.3339 29.2931 24.2282 28.7672 25.1521C27.0668 28.1405 25.6194 30.6448 25.3355 31.0898L25.3317 31.0958C25.1614 31.3627 24.8668 31.5242 24.5502 31.5242H22.7371C20.883 31.5242 20.3471 31.5598 20.074 31.701C19.8861 31.7982 19.7322 31.9483 19.7322 32.0344C19.7322 32.1206 19.654 32.2559 19.5584 32.3352C19.4539 32.422 19.3846 32.6754 19.3846 32.9709C19.3846 33.7551 20.0972 34.4207 20.9367 34.4207C21.3197 34.4207 21.3534 34.4515 21.4756 34.9131C21.5475 35.1838 21.8041 36.1353 22.0462 37.0274C22.2883 37.9195 22.6792 39.3793 22.9149 40.2714C23.1507 41.1635 23.5682 42.7276 23.8429 43.7471C24.1176 44.7667 24.3771 45.7663 24.4197 45.9685C24.5412 46.5472 25.1591 47.3825 25.6512 47.6335C25.8963 47.7586 26.3701 47.9002 26.7042 47.9483C27.2797 48.031 27.316 48.0568 27.3934 48.4346C27.5334 49.1195 27.6554 49.1506 30.0606 49.1115C31.9935 49.0802 32.2467 49.0533 32.4646 48.8558C32.6033 48.7301 32.7082 48.4932 32.7082 48.3055C32.7082 48.1235 32.8558 47.9759 33.0378 47.9759H35.424C36.9177 47.9759 38.1636 48.0149 38.1928 48.0628C38.2221 48.1106 38.2642 48.3061 38.2863 48.4973C38.3516 49.0595 38.5854 49.1152 40.934 49.1286C43.3225 49.142 43.5539 49.0818 43.6205 48.429C43.6527 48.1131 43.7249 48.0511 44.2789 47.8643C44.6213 47.7488 44.9399 47.5919 44.987 47.5156C45.0342 47.4393 45.1184 47.3943 45.1741 47.4157C45.3867 47.4973 46.0106 46.309 46.266 45.336C46.4116 44.7807 46.8625 43.0752 47.2679 41.5458C47.6733 40.0165 48.1915 38.0615 48.4195 37.2012C49.2108 34.2156 49.1277 34.4207 49.5446 34.4204C50.0154 34.4202 50.6458 34.0993 50.9256 33.7173C51.3354 33.1577 51.1555 32.19 50.5674 31.7906C50.3013 31.6099 49.9399 31.5772 47.8461 31.5447L45.9431 31.5152C45.6248 31.5102 45.3313 31.3423 45.1658 31.0705L45.0313 30.8496C44.693 30.2942 44.0051 29.1035 42.8779 27.1217C41.0189 23.8537 39.8116 21.7829 39.5974 21.4951C38.8703 20.5187 37.286 20.8792 37.0623 22.0722C36.969 22.5694 37.1388 22.9914 38.0941 24.6377C38.4617 25.2711 38.8652 25.9695 38.9907 26.1897C39.1163 26.41 39.5659 27.1859 39.9897 27.914C40.4135 28.6421 40.9339 29.5568 41.1461 29.9465C41.3584 30.3364 41.606 30.7376 41.6965 30.8383C41.7868 30.9388 41.8609 31.1344 41.8609 31.2727C41.8609 31.4116 41.7482 31.5242 41.6093 31.5242H35.257C29.4984 31.5242 28.6532 31.5022 28.6532 31.3524C28.6532 31.258 29.261 30.124 30.0038 28.8325C30.7466 27.5411 31.5823 26.0771 31.8607 25.5792C32.1392 25.0813 32.4987 24.4653 32.6596 24.2103C33.2871 23.2165 33.4371 22.8757 33.449 22.4181C33.4615 21.9341 33.2232 21.3288 33.0199 21.3288C32.9581 21.3288 32.8496 21.2539 32.7788 21.1624C32.5309 20.8414 31.8811 20.8337 31.3685 21.1456ZM33.3133 35.5824C33.6039 35.9412 33.6918 36.3742 33.5505 36.749C33.4413 37.0379 32.3983 38.685 32.2369 38.8232C32.1536 38.8945 29.9581 42.0579 29.638 42.5679C29.1206 43.3921 28.2859 44.4449 28.0429 44.58C27.5462 44.856 27.0424 44.7663 26.5993 44.3232C25.9739 43.6978 26.0689 43.3701 27.4527 41.3799C28.7088 39.5733 30.0695 37.6119 30.3008 37.2747C30.3822 37.1558 30.5403 36.939 30.6517 36.7931C30.7632 36.647 30.8545 36.4904 30.8545 36.4451C30.8545 36.3138 31.5619 35.5355 31.8281 35.374C32.1978 35.1497 33.0611 35.2708 33.3133 35.5824ZM38.5852 35.6403C38.9604 36.0154 38.989 36.092 38.9348 36.5734C38.9022 36.862 38.8013 37.1603 38.7104 37.2364C38.4824 37.4276 37.3424 39.1229 37.3424 39.2709C37.3424 39.3369 37.2718 39.4326 37.1855 39.4836C37.0991 39.5346 36.2613 40.6843 35.3236 42.0385C34.3859 43.3927 33.5216 44.5528 33.4027 44.6163C33.284 44.6799 32.9957 44.7319 32.7622 44.7319C32.4306 44.7319 32.2478 44.6422 31.9287 44.3232C31.2317 43.6262 31.3794 43.3026 34.2224 39.3002C35.0266 38.168 35.5482 37.4207 36.0415 36.6938C36.8977 35.4322 37.1238 35.2317 37.6901 35.2317C38.0924 35.2317 38.2474 35.3024 38.5852 35.6403ZM43.8912 35.5354C44.2235 35.8939 44.3533 36.4515 44.1985 36.8548C44.1377 37.0135 43.6047 37.8211 43.0142 38.6494C42.4237 39.4778 41.7532 40.4363 41.5242 40.7795C41.2951 41.1226 41.0035 41.5471 40.8761 41.7228C40.7486 41.8984 40.3316 42.5019 39.9492 43.0639C38.9787 44.4903 38.7106 44.7319 38.0974 44.7319C37.045 44.7319 36.5299 43.5071 37.2129 42.6292C37.4356 42.3432 38.9231 40.2209 40.2968 38.2292C40.7428 37.5825 41.0947 37.0086 41.0788 36.9535C41.063 36.8986 41.0945 36.8536 41.1489 36.8536C41.2034 36.8536 41.4666 36.542 41.7338 36.1612C42.3107 35.3387 42.4579 35.2398 43.1119 35.2351C43.503 35.2325 43.6702 35.2968 43.8912 35.5354ZM9.39513 42.3125L10.6569 43.5669C10.8105 43.7197 10.8304 43.9615 10.7037 44.1372C10.2767 44.7297 5.99775 48.8741 5.60662 49.0742C5.11782 49.3241 4.24588 49.3366 3.793 49.1003C3.37232 48.8806 2.90241 48.3822 2.65656 47.8948C2.41361 47.4131 2.415 46.4879 2.65911 46.1191C2.79211 45.9182 7.79759 40.7928 7.86073 40.7928C7.86397 40.7928 8.55448 41.4767 9.39513 42.3125ZM65.1666 43.3127C66.5458 44.6985 67.7575 45.9994 67.8593 46.2033C68.2563 46.9983 67.9589 48.1111 67.1771 48.7555C66.6087 49.224 66.0092 49.373 65.2966 49.2231C64.7818 49.1147 64.5673 48.9329 62.2713 46.6585C60.9121 45.3121 59.7466 44.1125 59.6814 43.9926C59.5793 43.8055 59.7723 43.5645 61.0502 42.2837C61.8685 41.4637 62.5652 40.7928 62.5985 40.7928C62.6319 40.7928 63.7876 41.9268 65.1666 43.3127ZM14.6321 52.5547C13.2644 53.9234 11.9625 55.1307 11.739 55.2377C11.2392 55.4765 10.3883 55.4781 9.9341 55.241C8.89116 54.6965 8.24862 53.121 8.75468 52.3487C8.84922 52.2043 10.0816 50.9366 11.4933 49.5315L13.4013 47.6323C13.7648 47.2704 14.353 47.2725 14.7139 47.637L15.5894 48.5212L16.4702 49.4108C16.829 49.7731 16.8277 50.3572 16.4673 50.718L14.6321 52.5547ZM61.9041 53.0313C61.9041 54.5401 60.4592 55.7462 59.0867 55.3831C58.6762 55.2745 58.1993 54.8541 55.9655 52.6316L53.9869 50.663C53.6237 50.3015 53.6226 49.714 53.9846 49.3512L54.8648 48.469L55.7447 47.5873C56.1068 47.2243 56.6948 47.2243 57.057 47.5873L59.1525 49.6879L61.6334 52.1749C61.8068 52.3487 61.9041 52.5841 61.9041 52.8295V53.0313ZM22.2043 55.1053C22.7563 55.6636 23.2079 56.1532 23.2079 56.1934C23.2079 56.2336 22.048 57.4201 20.6301 58.8301C18.5148 60.9337 17.9691 61.4163 17.5889 61.5197C17.0198 61.6745 16.9974 61.6745 16.4561 61.5242C15.2372 61.1857 14.4429 59.6957 14.8735 58.5554C14.9413 58.376 16.15 57.0711 17.5597 55.6556L19.6018 53.6049C19.892 53.3134 20.3612 53.3051 20.6616 53.586C20.958 53.8634 21.6522 54.5469 22.2043 55.1053ZM52.9435 55.6514C55.6768 58.4032 55.8538 58.6531 55.7291 59.5834C55.6104 60.4687 54.7271 61.4013 53.8328 61.5856C53.631 61.6272 53.24 61.6013 52.9639 61.5282C52.5309 61.4137 52.0988 61.0341 49.8251 58.772L47.8465 56.8034C47.4833 56.4419 47.4822 55.8544 47.8442 55.4916L48.7228 54.6111C49.5667 53.7655 50.2856 53.0736 50.3203 53.0736C50.3548 53.0736 51.5354 54.2336 52.9435 55.6514ZM49.4701 64.7075C50.0166 65.7389 48.9567 67.5093 47.6617 67.7281C46.7456 67.8829 46.5123 67.7174 43.6847 64.9085L41.7071 62.9438C41.3434 62.5824 41.3422 61.9945 41.7042 61.6316L42.5828 60.7512L43.4633 59.8689C43.8246 59.5068 44.4112 59.506 44.7736 59.8672L46.7044 61.7915C48.1271 63.2094 49.3716 64.5216 49.4701 64.7075ZM27.9024 60.7737C28.6977 61.5676 29.3483 62.26 29.3483 62.3122C29.3483 62.3644 28.2144 63.5366 26.8284 64.9173C23.8318 67.9026 23.4935 68.1023 22.339 67.5677C21.4397 67.1514 20.8908 66.2831 20.8908 65.2769V65.1116C20.8908 64.8663 20.988 64.631 21.1612 64.4572L23.5812 62.0292C25.0609 60.5445 26.3132 59.3299 26.3641 59.3299C26.415 59.3299 27.1073 59.9796 27.9024 60.7737Z" fill="#79C7D3"/>
</g>
<defs>
<linearGradient id="paint0_linear_429_1198" x1="88.1068" y1="40.7134" x2="300.934" y2="41.1895" gradientUnits="userSpaceOnUse">
<stop offset="0.216912" stop-color="#80358A"/>
<stop offset="0.760907" stop-color="#79C7D3" stop-opacity="0.487905"/>
<stop offset="0.9999" stop-color="#7AACC5" stop-opacity="0.1875"/>
<stop offset="1" stop-color="#79C7D3" stop-opacity="0"/>
</linearGradient>
<clipPath id="clip0_429_1198">
<rect width="69.514" height="69.514" fill="white" transform="translate(0.5 0.24292)"/>
</clipPath>
</defs>
</svg>
